<svg xmlns="http://www.w3.org/2000/svg" viewBox="0 0 11 11"><path fill="#f46404" d="M5.5 11s0-.1 0 0L4 9.5c-.1-.1-.1-.1-.2-.1h-2c-.1 0-.1 0-.1-.1V7.2c0-.1 0-.1-.1-.2L.1 5.5H0s.1 0 .1-.1l1.5-1.5c.1-.1.1-.1.1-.2v-2c0-.1 0-.1.1-.1h2.1c.1 0 .1 0 .2-.1L5.6 0v-.1s0 .1.1.1l1.5 1.5c.1.1.1.1.2.1h2c.1 0 .1 0 .1.1v2.1c0 .1 0 .1.1.2l1.5 1.5h.1s-.1 0-.1.1L9.6 7.1c-.2 0-.2 0-.2.1v2c0 .1 0 .1-.1.1H7.2c-.1 0-.1 0-.2.1-.5.5-.9 1-1.5 1.6zM2.6 5.5c0 1.6 1.3 2.9 2.9 2.9 1.6 0 2.9-1.3 2.9-2.9 0-1.6-1.3-2.9-2.9-2.9-1.6 0-2.9 1.3-2.9 2.9z"/><path fill="#f46404" d="M5.5 7.4c-1.1 0-1.9-.9-1.9-1.9 0-1.1.9-1.9 1.9-1.9 1.1 0 1.9.9 1.9 1.9 0 1.1-.8 1.9-1.9 1.9z"/></svg>