<svg xmlns="http://www.w3.org/2000/svg" viewBox="0 0 11 12"><path fill="#1d7cc5" d="M5.5 12c-.1-.1-.3-.2-.4-.3-.1 0-.1-.1-.1-.2v-1.4c-.1 0-.1.1-.2.1-.2.1-.4.3-.7.4H4c-.1-.1-.2-.1-.3-.2-.1 0-.1-.1-.1-.1v-.4c0-.1 0-.1.1-.1.3-.2.7-.4 1-.6C5 9 5 9 5 8.8V8c-.4.2-.7.4-1 .6V7.5c-.2.1-.3.1-.5.2-.1.1-.3.2-.5.3-.1 0-.1 0-.1.1v1.3c0 .1 0 .1-.1.1l-.3.3h-.1c-.1-.1-.1-.2-.2-.2s-.1-.1-.1-.2v-.9c-.1.1-.2.1-.2.2l-1.2.6H.5c-.1-.1-.3-.1-.4-.2-.1 0-.1 0-.1-.1v-.5s0-.1.1-.1c.4-.2.9-.5 1.3-.7l.1-.1c-.1 0-.3-.1-.4-.1-.1-.1-.3-.2-.5-.3-.1 0-.1-.1-.1-.1v-.4c0-.1 0-.1.1-.1.1-.1.3-.2.4-.3h.2c.4.3.8.5 1.2.8h.1c.3-.2.6-.3.9-.5-.3-.2-.7-.4-1-.6.3-.2.6-.4.9-.5 0 0-.1 0-.1-.1-.2-.1-.5-.3-.7-.4h-.1c-.5.2-.9.4-1.3.7H.9c-.1-.1-.2-.2-.3-.2v-.6s0-.1.1-.1c.3-.2.6-.3.8-.5-.2 0-.3 0-.4-.1-.3-.2-.7-.4-1-.5-.1-.1-.1-.1-.1-.2V3h.1c.2-.1.3-.1.5-.2h.1c.4.2.8.4 1.3.6 0 0 .1 0 .1.1v-.9c0-.1 0-.1.1-.2s.2-.1.3-.2h.1c.1.1.3.2.4.2v1.7c.3.1.5.3.8.4h.1V3.4c.4.3.7.4 1.1.6V3l-.1-.1c-.4-.2-.7-.4-1.1-.6-.1 0-.1-.1-.1-.2v-.4s0-.1.1-.1c0 0 .1-.1.2-.1h.2c.2.1.5.3.7.4 0 0 .1 0 .1.1V.5c0-.1 0-.1.1-.1.1-.2.2-.3.3-.4h.1c.1.1.2.2.4.2.1.1.1.2.1.3v1.4l.6-.3c.1 0 .3-.1.4-.2h.1c.2.1.3.2.5.2v.5c0 .1 0 .1-.1.1-.5.3-.9.5-1.4.7C6.1 3 6 3 6 3v1c.3-.2.7-.4 1-.6v1.1c.1-.1.2-.1.3-.2.3 0 .5-.1.7-.2.1 0 .1-.1.1-.1V2.6c0-.1 0-.1.1-.1s.2-.1.3-.1c.1 0 .3.1.4.2v1c.1-.2.2-.2.4-.3.4-.2.7-.4 1.1-.6h.1c.1.1.3.2.4.2.1.1.1.1.1.2v.4c0 .1 0 .1-.1.2-.3.2-.7.4-1 .6-.1 0-.2 0-.3.1l.6.3c.1 0 .2.1.2.1v.6s0 .1-.1.1c-.1.1-.3.1-.4.2h-.1c-.3-.3-.7-.5-1.1-.7-.1 0-.1-.1-.2 0-.3.1-.5.3-.8.4l-.1.1c.4.2.7.4 1 .5-.3.2-.6.4-1 .5.1 0 .2.1.3.1.2.2.4.3.6.4h.2c.4-.2.8-.4 1.2-.7h.1c.1.1.2.1.4.2.1 0 .1.1.1.1v.3c0 .1 0 .1-.1.2-.2.1-.5.3-.7.4 0 0 .1 0 .1.1.4.2.8.5 1.2.7V9c0 .1 0 .1-.1.1-.2.1-.3.1-.5.2h-.1c-.5-.2-.9-.5-1.3-.7h-.1v.9s0 .1-.1.1c0 .1-.1.1-.2.2h-.1c-.2-.1-.3-.1-.3-.2V8.2c0-.1 0-.1-.1-.1-.4-.2-.7-.4-1-.6H7v1c-.3-.2-.6-.3-1-.5v1l.1.1 1.2.6c.1 0 .1.1.1.2v.4s0 .1-.1.1h-.1c-.2.2-.4.1-.6 0l-.6-.3v1.4c0 .1 0 .1-.1.2s-.3.2-.4.3zm0-6.8h-.4s-.1 0-.1.1c-.1.2-.2.4-.4.7v.1c.1.2.3.4.4.6l.1.1H6l.3-.6v-.1c0-.4-.2-.6-.3-.8 0 0-.1 0-.1-.1h-.4z"/></svg>